<svg width="69" height="23" viewBox="0 0 69 23" fill="none" xmlns="http://www.w3.org/2000/svg">
    <rect x="0.5" y="0.5" width="68" height="22" rx="11" stroke="#868686"/>
    <path d="M8.476 13.172L8.02 12.404C9.604 11.924 10.696 10.736 10.72 9.32H8.272V8.528H10.72V7.196H11.704V8.528H14.188V9.32H11.704C11.728 10.688 12.856 11.828 14.428 12.296L13.972 13.052C12.7 12.668 11.716 11.852 11.224 10.784C10.756 11.912 9.76 12.764 8.476 13.172ZM11.704 12.812V14.768C12.712 14.708 13.756 14.636 14.716 14.48L14.8 15.212C12.388 15.656 9.748 15.668 7.828 15.68L7.696 14.852C8.584 14.852 9.628 14.852 10.72 14.816V12.812H11.704ZM15.424 7.124H16.408V17.9H15.424V7.124ZM26.9071 7.124V15.02H25.9231V7.124H26.9071ZM24.5551 12.488L24.0391 13.268C22.8151 12.8 21.8671 11.828 21.3871 10.604C20.9311 11.912 19.9591 12.956 18.6991 13.484L18.1831 12.68C19.8031 12.056 20.8831 10.496 20.8831 8.816V7.724H21.8671V8.816C21.8671 10.436 22.9591 11.9 24.5551 12.488ZM20.9671 16.844H27.2311V17.648H19.9831V14.288H20.9671V16.844ZM37.6581 10.904L37.2861 11.672C35.6541 11.396 34.0701 10.484 33.3861 9.248C32.7261 10.508 31.1301 11.42 29.4741 11.696L29.0901 10.928C30.9981 10.64 32.8821 9.368 32.8821 7.928V7.4H33.8901V7.928C33.8901 9.332 35.7861 10.616 37.6581 10.904ZM30.7221 14.552V16.844H37.1901V17.648H29.7381V14.552H30.7221ZM28.4901 12.608H38.2581V13.4H33.9501V15.572H32.9661V13.4H28.4901V12.608Z" fill="#868686"/>
    <path d="M58.7333 13.7113C58.6132 13.8599 58.3868 13.8599 58.2667 13.7113L55.8638 10.7386C55.7053 10.5424 55.8449 10.25 56.0971 10.25L60.9029 10.25C61.1551 10.25 61.2947 10.5424 61.1362 10.7386L58.7333 13.7113Z" fill="#868686"/>
</svg>
