<svg width="63" height="17" viewBox="0 0 63 17" fill="none" xmlns="http://www.w3.org/2000/svg">
    <rect x="0.5" y="0.5" width="62" height="16" rx="8" stroke="#868686"/>
    <path d="M8 12.5V5.16H8.93V8.85H8.96L12.02 5.16H13.06L10.77 7.96L13.42 12.5H12.39L10.19 8.68L8.93 10.18V12.5H8ZM16.4502 12.63C14.6102 12.63 13.3202 11.16 13.3202 8.81C13.3202 6.46 14.6102 5.03 16.4502 5.03C18.2902 5.03 19.5802 6.46 19.5802 8.81C19.5802 11.16 18.2902 12.63 16.4502 12.63ZM16.4502 11.82C17.7602 11.82 18.6302 10.64 18.6302 8.81C18.6302 6.97 17.7602 5.84 16.4502 5.84C15.1302 5.84 14.2702 6.97 14.2702 8.81C14.2702 10.64 15.1302 11.82 16.4502 11.82ZM20.6621 12.5V5.16H22.9621C24.4521 5.16 25.5221 5.7 25.5221 7.23C25.5221 8.37 24.8621 9.05 23.8621 9.29L25.7421 12.5H24.6921L22.9121 9.39H21.5921V12.5H20.6621ZM21.5921 8.64H22.8221C23.9721 8.64 24.6021 8.18 24.6021 7.23C24.6021 6.26 23.9721 5.92 22.8221 5.92H21.5921V8.64Z" fill="#868686"/>
    <path d="M53.2268 10.2381C53.1071 10.3763 52.8929 10.3763 52.7732 10.2381L50.8318 7.9964C50.6636 7.8021 50.8016 7.5 51.0586 7.5L54.9414 7.5C55.1984 7.5 55.3364 7.8021 55.1682 7.9964L53.2268 10.2381Z" fill="#868686"/>
</svg>
