<svg width="12" height="12" viewBox="0 0 12 12" fill="none" xmlns="http://www.w3.org/2000/svg">
    <g clip-path="url(#clip0_3_261)">
        <path d="M10.7304 5.5354C10.8425 5.44788 10.9257 5.32579 10.9682 5.18623C11.0108 5.04668 11.0106 4.89668 10.9677 4.75725C10.9248 4.61781 10.8413 4.49595 10.7289 4.40875C10.6166 4.32154 10.481 4.27337 10.3412 4.27097L7.62607 4.1635C7.61272 4.16253 7.59992 4.15754 7.58921 4.14913C7.57851 4.14072 7.57035 4.12924 7.56573 4.11608L6.6275 1.46078C6.58036 1.32568 6.49474 1.20903 6.38223 1.12662C6.26973 1.0442 6.13577 1 5.99849 1C5.86122 1 5.72726 1.0442 5.61475 1.12662C5.50224 1.20903 5.41662 1.32568 5.36948 1.46078L4.43427 4.12556C4.42965 4.13872 4.42149 4.1502 4.41079 4.15861C4.40008 4.16702 4.38728 4.17201 4.37393 4.17298L1.6588 4.28046C1.519 4.28285 1.38342 4.33103 1.27107 4.41823C1.15873 4.50544 1.07524 4.6273 1.03233 4.76673C0.989413 4.90616 0.989221 5.05617 1.03178 5.19572C1.07433 5.33527 1.1575 5.45737 1.26963 5.54489L3.3995 7.29929C3.41016 7.30807 3.41813 7.31995 3.42242 7.33343C3.42671 7.34691 3.42713 7.36142 3.42364 7.37515L2.69055 10.0968C2.65256 10.2354 2.65624 10.3829 2.70109 10.5193C2.74594 10.6556 2.82978 10.7741 2.9412 10.8587C3.05263 10.9434 3.18623 10.99 3.32383 10.9922C3.46143 10.9945 3.59635 10.9523 3.71023 10.8713L5.96078 9.29076C5.97187 9.28274 5.98502 9.27845 5.99849 9.27845C6.01196 9.27845 6.02512 9.28274 6.0362 9.29076L8.28675 10.8713C8.3991 10.955 8.53353 11 8.67139 11C8.80925 11 8.94369 10.955 9.05604 10.8713C9.16749 10.7875 9.25141 10.6695 9.29625 10.5337C9.34109 10.3978 9.34465 10.2507 9.30643 10.1126L8.56731 7.38147C8.5634 7.36776 8.56361 7.35312 8.56793 7.33954C8.57225 7.32596 8.58046 7.31411 8.59145 7.30561L10.7304 5.5354Z" fill="#FFD233"/>
    </g>
    <defs>
        <clipPath id="clip0_3_261">
            <rect width="12" height="12" fill="white"/>
        </clipPath>
    </defs>
</svg>
